<svg width="22" height="21" fill="none" xmlns="http://www.w3.org/2000/svg"><path d="M6.478 9.45c-.213 0-.42.061-.597.177-.177.115-.314.279-.396.47a1.027 1.027 0 00.233 1.145 1.097 1.097 0 001.171.228 1.07 1.07 0 00.483-.387 1.033 1.033 0 00-.134-1.326 1.088 1.088 0 00-.76-.307zm4.299 0c-.213 0-.42.061-.597.177-.177.115-.315.279-.396.47a1.027 1.027 0 00.233 1.145 1.097 1.097 0 001.171.228 1.07 1.07 0 00.482-.387 1.033 1.033 0 00-.134-1.326 1.088 1.088 0 00-.76-.307zm4.298 0c-.213 0-.42.061-.597.177-.177.115-.314.279-.396.47a1.027 1.027 0 00.233 1.145 1.097 1.097 0 001.171.228 1.07 1.07 0 00.482-.387 1.033 1.033 0 00-.133-1.326 1.088 1.088 0 00-.76-.307zM10.777 0c-1.412 0-2.81.272-4.113.8a10.766 10.766 0 00-3.486 2.275A10.379 10.379 0 00.03 10.5c-.01 2.424.85 4.775 2.429 6.646l-2.15 2.1a1.028 1.028 0 00-.226 1.144c.09.19.235.348.417.456.181.109.392.162.605.153h9.671c2.85 0 5.584-1.106 7.6-3.075a10.379 10.379 0 003.147-7.424c0-2.785-1.133-5.456-3.148-7.425A10.876 10.876 0 0010.777 0zm0 18.9H3.695l1-.977a1.05 1.05 0 00.322-.746 1.038 1.038 0 00-.323-.735 8.321 8.321 0 01-2.48-5.114 8.251 8.251 0 011.405-5.49 8.583 8.583 0 014.65-3.375 8.786 8.786 0 015.785.274 8.529 8.529 0 014.295 3.798 8.23 8.23 0 01.854 5.597 8.367 8.367 0 01-2.974 4.857 8.721 8.721 0 01-5.452 1.91z" fill="#fff"/></svg>