<svg width="55" height="43" fill="none" xmlns="http://www.w3.org/2000/svg"><path fill-rule="evenodd" clip-rule="evenodd" d="M14.924 4.086C16.562 3.993 18.198 4 19.835 4h8.299c1.67 0 3.305-.007 4.942.086 1.488.084 2.937.264 4.38.665 3.037.844 5.69 2.607 7.607 5.105A14.197 14.197 0 0148 18.5c0 3.125-1.032 6.162-2.937 8.645-1.918 2.498-4.57 4.261-7.607 5.105-1.443.401-2.892.58-4.38.665-1.637.094-3.273.085-4.91.085l-8.3.001c-1.668 0-3.304.008-4.942-.086-1.487-.085-2.936-.264-4.38-.665-3.036-.844-5.688-2.607-7.606-5.105A14.195 14.195 0 010 18.5c0-3.122 1.032-6.161 2.938-8.644 1.918-2.498 4.57-4.26 7.607-5.105 1.443-.401 2.892-.58 4.38-.665z" fill="#FF1640"/><g filter="url(#filter0_dd)"><path fill-rule="evenodd" clip-rule="evenodd" d="M33.5 32C40.956 32 47 25.956 47 18.5S40.956 5 33.5 5 20 11.044 20 18.5 26.044 32 33.5 32z" fill="#fff"/></g><defs><filter id="filter0_dd" x="12" y="0" width="43" height="43" filterUnits="userSpaceOnUse" color-interpolation-filters="sRGB"><feFlood flood-opacity="0" result="BackgroundImageFix"/><feColorMatrix in="SourceAlpha" values="0 0 0 0 0 0 0 0 0 0 0 0 0 0 0 0 0 0 127 0" result="hardAlpha"/><feOffset dy="3"/><feGaussianBlur stdDeviation=".5"/><feColorMatrix values="0 0 0 0 0 0 0 0 0 0 0 0 0 0 0 0 0 0 0.06 0"/><feBlend in2="BackgroundImageFix" result="effect1_dropShadow"/><feColorMatrix in="SourceAlpha" values="0 0 0 0 0 0 0 0 0 0 0 0 0 0 0 0 0 0 127 0" result="hardAlpha"/><feOffset dy="3"/><feGaussianBlur stdDeviation="4"/><feColorMatrix values="0 0 0 0 0 0 0 0 0 0 0 0 0 0 0 0 0 0 0.15 0"/><feBlend in2="effect1_dropShadow" result="effect2_dropShadow"/><feBlend in="SourceGraphic" in2="effect2_dropShadow" result="shape"/></filter></defs></svg>